<svg width="63" height="65" viewBox="0 0 63 65" fill="none" xmlns="http://www.w3.org/2000/svg">
<g filter="url(#filter0_d_11394_513)">
<path d="M4.00002 54.9996L8.00015 56.4996L8 48.4995L4.00002 54.9996Z" fill="#043E5F"/>
<path d="M49 6.00014H59V0L49 6.00014Z" fill="#043E5F"/>
<path fill-rule="evenodd" clip-rule="evenodd" d="M5.92885 28.1345L4 55C4.69072 54.137 5.36266 53.2969 6.01749 52.4781C24.7575 29.0477 29.4809 23.142 59 0L32.0653 1.93382C25.8115 7.12082 20.4216 11.5965 16.9731 14.4702C13.9924 18.2638 10.1778 22.9702 5.92885 28.1345Z" fill="url(#paint0_radial_11394_513)"/>
<path d="M11.2291 32.1284C11.3538 32.0382 11.4954 31.9849 11.6538 31.9684C11.8151 31.9491 11.9734 31.9666 12.1288 32.0208C12.2871 32.0722 12.4254 32.1574 12.5438 32.2766C12.6933 32.427 12.7903 32.6012 12.835 32.7993C12.8768 32.9946 12.8592 33.201 12.7822 33.4186C12.7052 33.6305 12.5674 33.8351 12.3688 34.0325L11.2623 35.1323L8.31423 32.1662L9.37811 31.1087C9.57954 30.9085 9.78502 30.772 9.99455 30.6991C10.2013 30.6233 10.3965 30.6069 10.5802 30.6499C10.7639 30.6929 10.9263 30.7853 11.0672 30.9272C11.2421 31.1031 11.3391 31.2971 11.3582 31.5093C11.3774 31.7158 11.3343 31.9222 11.2291 32.1284ZM9.97463 33.0622L10.6257 32.415C10.8073 32.2345 10.9054 32.0524 10.9201 31.8686C10.9348 31.6848 10.8675 31.5177 10.718 31.3674C10.5686 31.217 10.4019 31.1486 10.218 31.1622C10.0341 31.1758 9.84854 31.2756 9.6613 31.4617L9.01871 32.1004L9.97463 33.0622ZM12.0175 33.7472C12.2104 33.5555 12.3157 33.3606 12.3332 33.1627C12.3508 32.9647 12.2792 32.7849 12.1185 32.6232C11.955 32.4587 11.7699 32.386 11.5634 32.4051C11.354 32.4215 11.1543 32.5241 10.9642 32.713L10.2919 33.3813L11.3324 34.4282L12.0175 33.7472ZM14.7522 29.168C14.8255 29.2418 14.8988 29.324 14.972 29.4148L13.1081 31.2674C13.3507 31.4831 13.6078 31.5857 13.8794 31.5752C14.1509 31.559 14.3889 31.4495 14.5931 31.2464C14.7605 31.0801 14.8614 30.9036 14.896 30.717C14.9305 30.5248 14.9056 30.3409 14.8213 30.1652L15.2383 29.7507C15.3987 30.0369 15.4557 30.344 15.4095 30.6719C15.3604 30.997 15.1968 31.2978 14.9188 31.5741C14.6975 31.7941 14.4496 31.9418 14.175 32.0173C13.9032 32.09 13.6275 32.085 13.3477 32.0021C13.0651 31.9164 12.804 31.7529 12.5643 31.5118C12.3246 31.2706 12.1628 31.0113 12.0788 30.7339C11.9948 30.4565 11.9914 30.1835 12.0685 29.915C12.1457 29.6409 12.2978 29.3911 12.5248 29.1655C12.7461 28.9455 12.9898 28.7992 13.2559 28.7265C13.522 28.6537 13.785 28.6574 14.045 28.7374C14.305 28.8117 14.5407 28.9552 14.7522 29.168ZM14.2718 29.4848C14.1252 29.3372 13.9671 29.2434 13.7975 29.2033C13.6251 29.1603 13.4553 29.1683 13.2883 29.2272C13.1212 29.2804 12.9696 29.3747 12.8335 29.5101C12.6377 29.7046 12.5323 29.9334 12.5174 30.1964C12.5053 30.4566 12.5993 30.7072 12.7994 30.9482L14.2718 29.4848ZM17.3747 29.1331C17.196 29.3107 17.0061 29.4402 16.805 29.5217C16.6012 29.6002 16.4045 29.6265 16.2151 29.6005C16.0228 29.5716 15.852 29.4905 15.7025 29.3571L16.1025 28.9595C16.2294 29.0645 16.3778 29.106 16.5476 29.0839C16.7202 29.0589 16.8859 28.9675 17.0448 28.8096C17.1923 28.663 17.2762 28.5148 17.2965 28.3649C17.3167 28.2151 17.2775 28.0905 17.1788 27.9912C17.0773 27.8891 16.9572 27.859 16.8185 27.901C16.6769 27.9402 16.4871 28.0301 16.2491 28.1708C16.0309 28.2974 15.844 28.393 15.6882 28.4576C15.5325 28.5165 15.3698 28.5401 15.2001 28.5282C15.0304 28.5107 14.8709 28.4268 14.7214 28.2765C14.603 28.1573 14.5299 28.0128 14.5021 27.843C14.4744 27.6733 14.4975 27.4951 14.5717 27.3087C14.6429 27.1194 14.7623 26.9416 14.9297 26.7752C15.1878 26.5186 15.4612 26.3766 15.7498 26.3492C16.0384 26.3218 16.3011 26.4159 16.5381 26.6316L16.1508 27.0165C16.021 26.903 15.8741 26.8544 15.71 26.8709C15.5488 26.8846 15.3929 26.9661 15.2426 27.1156C15.1036 27.2537 15.0225 27.3935 14.9995 27.5348C14.9764 27.6762 15.0128 27.7951 15.1087 27.8916C15.1848 27.9682 15.2724 28.008 15.3714 28.0112C15.4704 28.0086 15.5723 27.9863 15.6771 27.9442C15.7818 27.8964 15.9192 27.8247 16.0892 27.7291C16.3017 27.6081 16.483 27.5181 16.6331 27.4592C16.7804 27.3974 16.9346 27.3739 17.0958 27.3885C17.2598 27.4003 17.4137 27.4757 17.5576 27.6147C17.6844 27.7424 17.7632 27.8926 17.7938 28.0652C17.8244 28.2378 17.804 28.4188 17.7327 28.6081C17.6615 28.7917 17.5421 28.9667 17.3747 29.1331ZM17.2062 25.2231L18.5724 26.5976C18.6851 26.7111 18.7896 26.768 18.8858 26.7683C18.9791 26.7658 19.0854 26.7053 19.2045 26.5868L19.4897 26.3034L19.8154 26.6311L19.4664 26.978C19.2508 27.1923 19.0397 27.3033 18.8332 27.3112C18.6267 27.3191 18.4107 27.2095 18.1851 26.9825L16.8189 25.608L16.5168 25.9083L16.1995 25.5892L16.5017 25.2888L15.918 24.7016L16.3052 24.3167L16.8889 24.9039L17.4975 24.2991L17.8147 24.6183L17.2062 25.2231ZM19.3944 21.1532C19.7178 20.8317 20.0579 20.6149 20.4146 20.5029C20.7714 20.3852 21.1235 20.3764 21.4711 20.4764C21.8216 20.5736 22.1476 20.774 22.4494 21.0776C22.7511 21.3812 22.9495 21.7085 23.0446 22.0595C23.1397 22.4048 23.1273 22.7555 23.0075 23.1115C22.8876 23.4619 22.666 23.7978 22.3425 24.1193L21.4191 25.0371L18.471 22.071L19.3944 21.1532ZM22.0253 23.8001C22.4083 23.4194 22.6004 23.0283 22.6016 22.6266C22.6 22.2222 22.4174 21.8369 22.0536 21.471C21.687 21.1022 21.2987 20.9157 20.8886 20.9116C20.4813 20.9047 20.0876 21.0902 19.7074 21.4681L19.1712 22.001L21.4891 24.333L22.0253 23.8001ZM25.3079 18.6763C25.3812 18.7501 25.4545 18.8323 25.5277 18.9231L23.6638 20.7757C23.9064 20.9914 24.1635 21.094 24.435 21.0835C24.7066 21.0674 24.9446 20.9578 25.1488 20.7548C25.3162 20.5884 25.4171 20.4119 25.4517 20.2253C25.4862 20.0331 25.4613 19.8492 25.377 19.6736L25.794 19.2591C25.9544 19.5452 26.0114 19.8523 25.9652 20.1802C25.9161 20.5054 25.7525 20.8061 25.4745 21.0824C25.2532 21.3024 25.0053 21.4501 24.7307 21.5256C24.4589 21.5984 24.1832 21.5933 23.9034 21.5104C23.6208 21.4247 23.3597 21.2613 23.12 21.0201C22.8803 20.779 22.7185 20.5197 22.6345 20.2422C22.5505 19.9648 22.5471 19.6918 22.6242 19.4234C22.7014 19.1492 22.8535 18.8994 23.0805 18.6738C23.3018 18.4539 23.5455 18.3075 23.8116 18.2348C24.0777 18.1621 24.3407 18.1657 24.6007 18.2457C24.8606 18.32 25.0964 18.4636 25.3079 18.6763ZM24.8275 18.9931C24.6809 18.8455 24.5228 18.7517 24.3532 18.7116C24.1808 18.6687 24.011 18.6766 23.844 18.7355C23.6769 18.7888 23.5253 18.883 23.3892 19.0184C23.1934 19.213 23.088 19.4417 23.0731 19.7047C23.061 19.9649 23.155 20.2155 23.3551 20.4566L24.8275 18.9931ZM25.7547 18.3929C25.5178 18.1546 25.3588 17.8982 25.2776 17.6236C25.1936 17.3461 25.186 17.0746 25.2547 16.8089C25.3262 16.5404 25.4655 16.3033 25.6726 16.0974C25.8769 15.8944 26.0979 15.7621 26.3357 15.7006C26.5734 15.6391 26.7955 15.6384 27.0018 15.6984L26.5788 15.2728L26.9703 14.8837L29.2882 17.2157L28.8967 17.6049L28.4652 17.1708C28.524 17.3831 28.5219 17.6108 28.4589 17.8539C28.396 18.0913 28.2638 18.3101 28.0624 18.5103C27.8553 18.7161 27.6173 18.8512 27.3484 18.9154C27.0795 18.9796 26.8051 18.9675 26.5254 18.8789C26.2457 18.7904 25.9888 18.6284 25.7547 18.3929ZM27.7335 16.4346C27.5587 16.2587 27.3709 16.1408 27.1703 16.0807C26.9697 16.0207 26.7745 16.0173 26.5849 16.0705C26.3952 16.118 26.228 16.2136 26.0833 16.3575C25.9387 16.5013 25.8406 16.6664 25.7891 16.853C25.7376 17.0395 25.7413 17.2332 25.8001 17.4342C25.8588 17.6352 25.9756 17.8237 26.1505 17.9996C26.3281 18.1783 26.5187 18.2991 26.7221 18.3619C26.9228 18.4219 27.1179 18.4282 27.3076 18.3807C27.4944 18.3303 27.6602 18.2333 27.8048 18.0895C27.9495 17.9456 28.0476 17.7805 28.0991 17.594C28.1506 17.4018 28.1469 17.2052 28.0882 17.0042C28.0266 16.8004 27.9083 16.6105 27.7335 16.4346ZM27.1999 13.0313L30.3299 16.1804L29.9426 16.5653L26.8126 13.4162L27.1999 13.0313ZM31.8535 14.7421C31.6748 14.9198 31.4849 15.0493 31.2838 15.1307C31.0799 15.2093 30.8833 15.2356 30.6938 15.2095C30.5016 15.1807 30.3307 15.0995 30.1812 14.9661L30.5812 14.5685C30.7082 14.6736 30.8566 14.715 31.0263 14.6929C31.1989 14.668 31.3647 14.5766 31.5236 14.4187C31.6711 14.272 31.755 14.1238 31.7752 13.974C31.7955 13.8241 31.7563 13.6995 31.6576 13.6002C31.5561 13.4981 31.4359 13.468 31.2972 13.5101C31.1557 13.5492 30.9659 13.6392 30.7279 13.7799C30.5097 13.9065 30.3227 14.0021 30.167 14.0666C30.0112 14.1256 29.8485 14.1491 29.6789 14.1373C29.5092 14.1198 29.3497 14.0359 29.2002 13.8855C29.0818 13.7664 29.0087 13.6219 28.9809 13.4521C28.9531 13.2823 28.9763 13.1042 29.0504 12.9177C29.1217 12.7284 29.241 12.5506 29.4084 12.3842C29.6666 12.1276 29.94 11.9856 30.2285 11.9582C30.5171 11.9308 30.7799 12.025 31.0168 12.2406L30.6296 12.6255C30.4998 12.512 30.3529 12.4635 30.1888 12.48C30.0275 12.4936 29.8717 12.5752 29.7213 12.7246C29.5823 12.8628 29.5013 13.0025 29.4782 13.1439C29.4552 13.2852 29.4916 13.4042 29.5875 13.5006C29.6636 13.5772 29.7512 13.6171 29.8501 13.6202C29.9491 13.6177 30.051 13.5954 30.1558 13.5533C30.2606 13.5055 30.398 13.4338 30.568 13.3381C30.7805 13.2172 30.9618 13.1272 31.1119 13.0683C31.2592 13.0065 31.4134 12.9829 31.5746 12.9975C31.7386 13.0093 31.8925 13.0848 32.0363 13.2238C32.1632 13.3515 32.2419 13.5016 32.2725 13.6742C32.3031 13.8469 32.2828 14.0278 32.2115 14.2171C32.1402 14.4007 32.0209 14.5757 31.8535 14.7421Z" fill="#EFEFEF"/>
</g>
<defs>
<filter id="filter0_d_11394_513" x="0" y="0" width="63" height="64.5" filterUnits="userSpaceOnUse" color-interpolation-filters="sRGB">
<feFlood flood-opacity="0" result="BackgroundImageFix"/>
<feColorMatrix in="SourceAlpha" type="matrix" values="0 0 0 0 0 0 0 0 0 0 0 0 0 0 0 0 0 0 127 0" result="hardAlpha"/>
<feOffset dy="4"/>
<feGaussianBlur stdDeviation="2"/>
<feComposite in2="hardAlpha" operator="out"/>
<feColorMatrix type="matrix" values="0 0 0 0 0 0 0 0 0 0 0 0 0 0 0 0 0 0 0.2 0"/>
<feBlend mode="normal" in2="BackgroundImageFix" result="effect1_dropShadow_11394_513"/>
<feBlend mode="normal" in="SourceGraphic" in2="effect1_dropShadow_11394_513" result="shape"/>
</filter>
<radialGradient id="paint0_radial_11394_513" cx="0" cy="0" r="1" gradientUnits="userSpaceOnUse" gradientTransform="translate(20.466 20.4578) rotate(55.6922) scale(51.3454)">
<stop stop-color="#3C9BD0"/>
<stop offset="1" stop-color="#043E5F"/>
</radialGradient>
</defs>
</svg>
