<svg width="90" height="48" viewBox="0 0 90 48" fill="none" xmlns="http://www.w3.org/2000/svg">
<rect x="1.25" y="0.5" width="88.25" height="47" rx="3.5" fill="#F9F9F9"/>
<rect x="1.25" y="0.5" width="88.25" height="47" rx="3.5" stroke="#D9D9D9"/>
<path fill-rule="evenodd" clip-rule="evenodd" d="M23.6282 17H19.17C18.8649 17 18.6054 17.2019 18.5578 17.4764L16.7547 27.8897C16.7189 28.0953 16.8936 28.2804 17.1224 28.2804H19.2507C19.5558 28.2804 19.8153 28.0787 19.863 27.8037L20.3492 24.995C20.3961 24.72 20.6562 24.5181 20.9607 24.5181H22.372C25.3087 24.5181 27.0035 23.2236 27.4463 20.6585C27.6457 19.5361 27.4547 18.6544 26.8777 18.0369C26.2441 17.3588 25.1202 17 23.6282 17ZM24.1425 20.8037C23.8987 22.2609 22.6765 22.2609 21.4947 22.2609H20.8218L21.2938 19.5395C21.322 19.375 21.4783 19.2539 21.6609 19.2539H21.9693C22.7743 19.2539 23.5337 19.2539 23.9261 19.6719C24.1602 19.9212 24.2318 20.2918 24.1425 20.8037Z" fill="#28356A"/>
<path fill-rule="evenodd" clip-rule="evenodd" d="M37.0683 20.6791H34.9334C34.7515 20.6791 34.5943 20.8001 34.5664 20.9646L34.4718 21.5085L34.3226 21.3114C33.8605 20.7003 32.8297 20.4961 31.8012 20.4961C29.4419 20.4961 27.4269 22.1238 27.0345 24.4069C26.8306 25.5458 27.1205 26.6349 27.8299 27.3943C28.4805 28.0925 29.4114 28.3836 30.5188 28.3836C32.4198 28.3836 33.4737 27.2702 33.4737 27.2702L33.3786 27.8106C33.3428 28.0172 33.5175 28.2025 33.7451 28.2025H35.668C35.9738 28.2025 36.232 28.0006 36.2802 27.7256L37.434 21.0698C37.4705 20.8648 37.2963 20.6791 37.0683 20.6791ZM34.0923 24.464C33.8864 25.5749 32.9184 26.3207 31.6837 26.3207C31.0638 26.3207 30.5685 26.1396 30.2502 25.7964C29.9347 25.4556 29.8149 24.9704 29.9151 24.4301C30.1076 23.3286 31.0918 22.5584 32.3077 22.5584C32.9139 22.5584 33.4067 22.742 33.7314 23.088C34.0566 23.4377 34.1856 23.9259 34.0923 24.464Z" fill="#28356A"/>
<path fill-rule="evenodd" clip-rule="evenodd" d="M48.275 20.8438H46.1295C45.9248 20.8438 45.7325 20.9364 45.6166 21.0914L42.6577 25.0614L41.4034 21.2463C41.3245 21.0076 41.0828 20.8438 40.8089 20.8438H38.7008C38.4445 20.8438 38.2666 21.0718 38.3481 21.2915L40.7112 27.6082L38.4896 30.465C38.3148 30.6901 38.4909 30.9995 38.7927 30.9995H40.9354C41.1388 30.9995 41.3291 30.9091 41.4445 30.7573L48.5799 21.3752C48.7508 21.1508 48.5754 20.8438 48.275 20.8438Z" fill="#28356A"/>
<path fill-rule="evenodd" clip-rule="evenodd" d="M55.4269 17H50.9681C50.6637 17 50.4043 17.2019 50.3566 17.4764L48.5535 27.8897C48.5177 28.0953 48.6924 28.2804 48.92 28.2804H51.208C51.4204 28.2804 51.6023 28.1392 51.6355 27.9468L52.1473 24.995C52.1942 24.72 52.4544 24.5181 52.7588 24.5181H54.1695C57.1067 24.5181 58.801 23.2236 59.2444 20.6585C59.4445 19.5361 59.2522 18.6544 58.6752 18.0369C58.0422 17.3588 56.919 17 55.4269 17ZM55.9414 20.8037C55.6982 22.2609 54.4759 22.2609 53.2934 22.2609H52.6215L53.094 19.5395C53.122 19.375 53.2772 19.2539 53.4603 19.2539H53.7687C54.5731 19.2539 55.3332 19.2539 55.7256 19.6719C55.9597 19.9212 56.0307 20.2918 55.9414 20.8037Z" fill="#298FC2"/>
<path fill-rule="evenodd" clip-rule="evenodd" d="M68.8642 20.6791H66.7306C66.5475 20.6791 66.3917 20.8001 66.3643 20.9646L66.2697 21.5085L66.1198 21.3114C65.6577 20.7003 64.6277 20.4961 63.5989 20.4961C61.2398 20.4961 59.2256 22.1238 58.8332 24.4069C58.6298 25.5458 58.9185 26.6349 59.6277 27.3943C60.2797 28.0925 61.2092 28.3836 62.3168 28.3836C64.2176 28.3836 65.2717 27.2702 65.2717 27.2702L65.1766 27.8106C65.1408 28.0172 65.3153 28.2025 65.5443 28.2025H67.4667C67.771 28.2025 68.0305 28.0006 68.0782 27.7256L69.2325 21.0698C69.2678 20.8648 69.093 20.6791 68.8642 20.6791ZM65.8884 24.464C65.6837 25.5749 64.7143 26.3207 63.4796 26.3207C62.861 26.3207 62.3643 26.1396 62.0461 25.7964C61.7307 25.4556 61.612 24.9704 61.711 24.4301C61.9047 23.3286 62.8876 22.5584 64.1035 22.5584C64.7097 22.5584 65.2026 22.742 65.5272 23.088C65.8537 23.4377 65.9828 23.9259 65.8884 24.464Z" fill="#298FC2"/>
<path fill-rule="evenodd" clip-rule="evenodd" d="M71.2036 17.2862L69.3738 27.8902C69.338 28.0958 69.5126 28.2809 69.7401 28.2809H71.5797C71.8856 28.2809 72.1449 28.0792 72.1918 27.8042L73.9962 17.3914C74.0322 17.1858 73.8574 17 73.6299 17H71.5701C71.3882 17.0005 71.2317 17.1218 71.2036 17.2862Z" fill="#298FC2"/>
</svg>
