<svg width="90" height="48" viewBox="0 0 90 48" fill="none" xmlns="http://www.w3.org/2000/svg">
<rect x="0.5" y="0.5" width="88.25" height="47" rx="3.5" fill="#F9F9F9"/>
<rect x="0.5" y="0.5" width="88.25" height="47" rx="3.5" stroke="#D9D9D9"/>
<path fill-rule="evenodd" clip-rule="evenodd" d="M30.3131 30.8903H25.3585L21.6431 20.0295C21.4668 19.5299 21.0923 19.0882 20.5415 18.8801C19.167 18.3569 17.6523 17.9406 16 17.7306V17.3125H23.9815C25.0831 17.3125 25.9093 17.9406 26.0469 18.6701L27.9747 26.5044L32.9269 17.3125H37.7438L30.3131 30.8903ZM40.4994 30.8903H35.8201L39.6732 17.3125H44.3524L40.4994 30.8903ZM50.4051 21.0746C50.5428 20.3433 51.369 19.9252 52.3328 19.9252C53.8475 19.8202 55.4974 20.0302 56.8744 20.5515L57.7006 17.6281C56.3236 17.21 54.8089 17 53.4344 17C48.8929 17 45.5882 18.8807 45.5882 21.4909C45.5882 23.4767 47.929 24.5193 49.5813 25.1474C51.369 25.7737 52.0575 26.1919 51.9198 26.8182C51.9198 27.7576 50.5428 28.1758 49.1683 28.1758C47.5159 28.1758 45.8636 27.8626 44.3513 27.3395L43.5252 30.2647C45.1775 30.786 46.9651 30.996 48.6175 30.996C53.7098 31.0991 56.8744 29.2202 56.8744 26.4C56.8744 22.8485 50.4051 22.6404 50.4051 21.0746ZM73.2498 30.8903L69.5344 17.3125H65.5437C64.7175 17.3125 63.8913 17.7306 63.6159 18.3569L56.736 30.8903H61.5529L62.5144 28.9064H68.4329L68.9837 30.8903H73.2498ZM66.232 20.9688L67.6066 26.086H63.7535L66.232 20.9688Z" fill="#172B85"/>
</svg>
