<svg width="24" height="25" viewBox="0 0 24 25" fill="none" xmlns="http://www.w3.org/2000/svg">
<g filter="url(#filter0_b_3163_54596)">
<rect x="0.5" y="1" width="23" height="23" rx="3.5" stroke="#07689F"/>
<path d="M5.65 12.58C5.02333 12.2467 4.71 11.7233 4.71 11.01C4.71 10.65 4.80333 10.3233 4.99 10.03C5.17667 9.73 5.46 9.49333 5.84 9.32C6.22 9.14 6.68667 9.05 7.24 9.05C7.79333 9.05 8.25667 9.14 8.63 9.32C9.01 9.49333 9.29333 9.73 9.48 10.03C9.66667 10.3233 9.76 10.65 9.76 11.01C9.76 11.37 9.67333 11.6833 9.5 11.95C9.33333 12.2167 9.10667 12.4267 8.82 12.58C9.18 12.7533 9.45667 12.9933 9.65 13.3C9.84333 13.6 9.94 13.9533 9.94 14.36C9.94 14.8333 9.82 15.2433 9.58 15.59C9.34 15.93 9.01333 16.19 8.6 16.37C8.19333 16.55 7.74 16.64 7.24 16.64C6.74 16.64 6.28333 16.55 5.87 16.37C5.46333 16.19 5.14 15.93 4.9 15.59C4.66 15.2433 4.54 14.8333 4.54 14.36C4.54 13.9467 4.63667 13.59 4.83 13.29C5.02333 12.9833 5.29667 12.7467 5.65 12.58ZM8.1 11.27C8.1 10.9967 8.02 10.7867 7.86 10.64C7.70667 10.4867 7.5 10.41 7.24 10.41C6.98 10.41 6.77 10.4867 6.61 10.64C6.45667 10.7933 6.38 11.0067 6.38 11.28C6.38 11.54 6.46 11.7467 6.62 11.9C6.78 12.0467 6.98667 12.12 7.24 12.12C7.49333 12.12 7.7 12.0433 7.86 11.89C8.02 11.7367 8.1 11.53 8.1 11.27ZM7.24 13.32C6.92667 13.32 6.67333 13.4067 6.48 13.58C6.28667 13.7467 6.19 13.98 6.19 14.28C6.19 14.56 6.28333 14.79 6.47 14.97C6.66333 15.15 6.92 15.24 7.24 15.24C7.56 15.24 7.81 15.15 7.99 14.97C8.17667 14.79 8.27 14.56 8.27 14.28C8.27 13.9867 8.17333 13.7533 7.98 13.58C7.79333 13.4067 7.54667 13.32 7.24 13.32ZM12.9444 14.92L11.8344 17.79H10.7444L11.3244 14.92H12.9444ZM15.6455 14.36C15.7455 14.8867 16.0521 15.15 16.5655 15.15C16.9188 15.15 17.1688 14.9933 17.3155 14.68C17.4621 14.3667 17.5355 13.8567 17.5355 13.15C17.3888 13.3567 17.1888 13.5167 16.9355 13.63C16.6821 13.7433 16.3988 13.8 16.0855 13.8C15.6588 13.8 15.2788 13.7133 14.9455 13.54C14.6121 13.36 14.3488 13.0967 14.1555 12.75C13.9688 12.3967 13.8755 11.97 13.8755 11.47C13.8755 10.9767 13.9755 10.5467 14.1755 10.18C14.3821 9.81333 14.6721 9.53 15.0455 9.33C15.4255 9.13 15.8721 9.03 16.3855 9.03C17.3721 9.03 18.0621 9.33667 18.4555 9.95C18.8488 10.5633 19.0455 11.4667 19.0455 12.66C19.0455 13.5267 18.9655 14.2433 18.8055 14.81C18.6521 15.37 18.3888 15.7967 18.0155 16.09C17.6488 16.3833 17.1455 16.53 16.5055 16.53C15.9988 16.53 15.5655 16.43 15.2055 16.23C14.8521 16.03 14.5788 15.7667 14.3855 15.44C14.1988 15.1133 14.0921 14.7533 14.0655 14.36H15.6455ZM16.4755 12.45C16.7555 12.45 16.9788 12.3667 17.1455 12.2C17.3121 12.0267 17.3955 11.7933 17.3955 11.5C17.3955 11.18 17.3088 10.9333 17.1355 10.76C16.9621 10.5867 16.7288 10.5 16.4355 10.5C16.1421 10.5 15.9088 10.59 15.7355 10.77C15.5688 10.9433 15.4855 11.1833 15.4855 11.49C15.4855 11.7767 15.5688 12.01 15.7355 12.19C15.9088 12.3633 16.1555 12.45 16.4755 12.45Z" fill="#07689F"/>
</g>
<defs>
<filter id="filter0_b_3163_54596" x="-4" y="-3.5" width="32" height="32" filterUnits="userSpaceOnUse" color-interpolation-filters="sRGB">
<feFlood flood-opacity="0" result="BackgroundImageFix"/>
<feGaussianBlur in="BackgroundImageFix" stdDeviation="2"/>
<feComposite in2="SourceAlpha" operator="in" result="effect1_backgroundBlur_3163_54596"/>
<feBlend mode="normal" in="SourceGraphic" in2="effect1_backgroundBlur_3163_54596" result="shape"/>
</filter>
</defs>
</svg>
