<svg width="41" height="40" viewBox="0 0 41 40" fill="none" xmlns="http://www.w3.org/2000/svg">
<rect width="40" height="40" transform="translate(0.5)" fill="#F9F9F9"/>
<rect x="0.5" width="40" height="40" rx="4" fill="#F9F9F9"/>
<path d="M20.4993 28.3337C22.8005 28.3337 24.8839 27.4009 26.3919 25.8929C27.8999 24.3848 28.8327 22.3015 28.8327 20.0003C28.8327 17.6992 27.8999 15.6158 26.3919 14.1078C24.8839 12.5997 22.8005 11.667 20.4993 11.667C18.1982 11.667 16.1148 12.5997 14.6068 14.1078C13.0988 15.6158 12.166 17.6992 12.166 20.0003C12.166 22.3015 13.0988 24.3848 14.6068 25.8929C16.1148 27.4009 18.1982 28.3337 20.4993 28.3337Z" stroke="#043E5F" stroke-width="2" stroke-linejoin="round"/>
<path d="M20.5 21.9274V20.2607C21.8807 20.2607 23 19.1415 23 17.7607C23 16.38 21.8807 15.2607 20.5 15.2607C19.1193 15.2607 18 16.38 18 17.7607" stroke="#043E5F" stroke-width="2" stroke-linecap="round" stroke-linejoin="round"/>
<path fill-rule="evenodd" clip-rule="evenodd" d="M20.5007 25.6771C21.0759 25.6771 21.5423 25.2107 21.5423 24.6354C21.5423 24.0601 21.0759 23.5938 20.5007 23.5938C19.9254 23.5938 19.459 24.0601 19.459 24.6354C19.459 25.2107 19.9254 25.6771 20.5007 25.6771Z" fill="#043E5F"/>
</svg>
