<svg width="54" height="22" viewBox="0 0 54 22" fill="none" xmlns="http://www.w3.org/2000/svg">
<path d="M12.3397 7.68262L12.2999 7.92771C11.7749 10.7759 9.99317 11.7562 7.71027 11.7562H6.54893C6.41451 11.7565 6.28459 11.8078 6.18253 11.9007C6.08046 11.9936 6.01295 12.1222 5.99213 12.2633L5.39555 16.2693L5.22851 17.4018C5.22153 17.4469 5.22394 17.4931 5.23557 17.5371C5.2472 17.5811 5.26777 17.6219 5.29583 17.6565C5.32389 17.6912 5.35875 17.7189 5.39797 17.7377C5.43719 17.7564 5.47981 17.7659 5.52282 17.7653H7.583C7.70111 17.7669 7.81586 17.7234 7.90637 17.6428C7.99687 17.5621 8.05713 17.4496 8.07617 17.3258V17.2159L8.45798 14.6044V14.4607C8.47529 14.3353 8.5348 14.2208 8.62547 14.1385C8.71615 14.0561 8.83186 14.0115 8.95115 14.0128H9.26137C11.2579 14.0128 12.817 13.1676 13.2385 10.6322C13.3611 10.2047 13.3875 9.75253 13.3156 9.31218C13.2438 8.87182 13.0757 8.45552 12.8249 8.09674C12.6849 7.93218 12.5211 7.79239 12.3397 7.68262Z" fill="#179BD7"/>
<path d="M11.7905 7.45443L11.5439 7.38682L11.2814 7.33611C10.9444 7.28219 10.604 7.25676 10.2633 7.26005H7.16105C7.04313 7.26074 6.92935 7.30631 6.84033 7.38849C6.75131 7.47066 6.69295 7.58401 6.67584 7.70798L6.01562 12.145V12.2718C6.03645 12.1307 6.10396 12.0021 6.20602 11.9092C6.30809 11.8162 6.43801 11.765 6.57243 11.7647H7.73377C10.0167 11.7647 11.7984 10.7843 12.3234 7.93617C12.3234 7.85165 12.3234 7.76714 12.3632 7.69108C12.2254 7.61358 12.0817 7.54856 11.9337 7.49669L11.7905 7.45443Z" fill="#222D65"/>
<path d="M6.66735 7.69912C6.68447 7.57515 6.74282 7.4618 6.83184 7.37962C6.92086 7.29745 7.03464 7.25188 7.15257 7.25119H10.2548C10.5982 7.24745 10.9413 7.27288 11.2809 7.32725L11.5434 7.37796L11.79 7.44557H11.9093C12.0573 7.49762 12.2009 7.56264 12.3388 7.63996C12.4394 7.22122 12.4435 6.78287 12.3507 6.36209C12.258 5.94131 12.0711 5.55051 11.8059 5.22283C11.2172 4.5129 10.1514 4.2002 8.79116 4.2002H4.81399C4.67956 4.20048 4.54964 4.2517 4.44758 4.34465C4.34552 4.4376 4.27801 4.56618 4.25718 4.70729L2.61858 15.8548C2.6118 15.9059 2.61534 15.958 2.62896 16.0075C2.64258 16.057 2.66597 16.1029 2.69758 16.1421C2.72918 16.1812 2.76828 16.2128 2.81226 16.2347C2.85624 16.2566 2.90411 16.2682 2.95267 16.2689H5.39465L6.00714 12.1362L6.66735 7.69912Z" fill="#253B80"/>
</svg>
