<svg width="90" height="48" viewBox="0 0 90 48" fill="none" xmlns="http://www.w3.org/2000/svg">
<rect x="0.75" y="0.5" width="88.25" height="47" rx="3.5" fill="#F9F9F9"/>
<rect x="0.75" y="0.5" width="88.25" height="47" rx="3.5" stroke="#D9D9D9"/>
<path fill-rule="evenodd" clip-rule="evenodd" d="M28.4762 43.1996V26.5779H37.3818L38.3373 29.0394L39.3244 26.5779H71.6495V42.0533C71.6495 42.0533 70.8042 43.183 69.8265 43.1996H51.9274L50.8501 40.5795V43.1996H47.32V38.7269C47.32 38.7269 46.8378 39.3512 45.7953 39.3512H44.5937V43.1996H39.2488L38.2947 40.6853L37.326 43.1996H28.4762ZM18.0996 14.0523L20.1033 4.7998H23.5685L24.7056 9.98268V4.7998H29.0131L29.6901 8.54583L30.3463 4.7998H49.6827V6.68306C49.6827 6.68306 50.6992 4.7998 52.3698 4.7998L58.6437 4.84324L59.7612 9.95828V4.7998H63.366L64.3581 7.73799V4.7998H67.996V21.4216H64.3581L63.4073 18.4739V21.4216H58.1111L57.5785 18.8014H56.1547L55.6308 21.4216H52.039C50.6016 21.4216 49.6827 19.5768 49.6827 19.5768V21.4216H44.2673L43.1925 18.8014V21.4216H23.0551L22.5229 18.8014H21.1036L20.5752 21.4216H18.0996V14.0523ZM18.1101 19.2894L20.8126 6.84355H22.8615L25.5614 19.2894H23.7632L23.2671 16.7972H20.3682L19.8696 19.2894H18.1101ZM22.6964 14.0955L21.8128 9.74043L20.9266 14.0955H22.6964ZM25.7464 19.2894V6.84355L28.2468 6.86195L29.7011 14.8862L31.1205 6.84355H33.6009V19.2894H32.03V10.1188L30.3648 19.2894H28.9871L27.3173 10.1188V19.2894H25.7464ZM34.6758 19.2894V6.84355H39.8018V9.6275H36.2632V11.7564H39.7192V14.3766H36.2632V16.5873H39.8018V19.2894H34.6758ZM40.7132 19.2894V6.84355H44.209C45.3673 6.84355 46.4051 8.26225 46.4051 10.8813C46.4051 13.1202 45.5301 14.5623 44.6818 14.7041L46.7488 19.2894H44.8291L42.9456 14.8678H42.2841V19.2894H40.7132ZM44.0808 9.62793H42.2851V12.2481H44.1041C44.4189 12.2481 44.8249 11.7649 44.8249 10.938C44.8249 10.2953 44.5116 9.62793 44.0808 9.62793ZM48.6492 19.2894H47.0453V6.84355H48.6492V19.2894ZM52.454 19.2894H52.1078C50.4326 19.2894 49.4156 16.6754 49.4156 13.1177C49.4156 9.47204 50.4212 6.84355 52.5367 6.84355H54.2729V9.79126H52.4732C51.6144 9.79126 51.0071 11.1187 51.0071 13.1484C51.0071 15.5587 51.7016 16.571 52.702 16.571H53.1154L52.454 19.2894ZM53.1673 19.2894L55.8698 6.84355H57.9187L60.6186 19.2894H58.8204L58.3243 16.7972H55.4254L54.9268 19.2894H53.1673ZM57.7532 14.0955L56.8696 9.74043L55.9834 14.0955H57.7532ZM60.8032 19.2894V6.84355H62.8004L65.3505 14.6632V6.84355H66.9214V19.2894H64.9888L62.3741 11.2651V19.2894H60.8032ZM29.5509 41.0767V28.6309H34.6769V31.4148H31.1383V33.5437H34.5943V36.1639H31.1383V38.3747H34.6769V41.0767H29.5509ZM54.6677 41.0767V28.6309H59.7938V31.4148H56.2551V33.5437H59.6945V36.1639H56.2551V38.3747H59.7938V41.0767H54.6677ZM34.8755 41.0767L37.3714 34.9306L34.8161 28.6309H36.7952L38.317 32.5253L39.844 28.6309H41.7456L39.2239 34.8538L41.7243 41.0767H39.7455L38.2679 37.2437L36.8262 41.0767H34.8755ZM41.9121 41.0722V28.6264H45.382C46.8058 28.6264 47.6376 30.444 47.6376 32.8125C47.6376 35.6717 46.577 37.1419 45.1779 37.1419H43.5243V41.0722H41.9121ZM45.2651 31.4389H43.5237V34.3047H45.2599C45.7187 34.3047 46.0402 33.7024 46.0402 32.8718C46.0402 31.9876 45.7171 31.4389 45.2651 31.4389ZM48.3195 41.0722V28.6264H51.8153C52.9736 28.6264 54.0114 30.0451 54.0114 32.6641C54.0114 34.903 53.1364 36.3451 52.2881 36.4869L54.3551 41.0722H52.4354L50.5518 36.6507H49.8904V41.0722H48.3195ZM51.6871 31.4107H49.8914V34.0309H51.7104C52.0252 34.0309 52.4312 33.5477 52.4312 32.7208C52.4312 32.0781 52.1179 31.4107 51.6871 31.4107ZM60.5224 41.0767V38.3747H63.6663C64.1315 38.3747 64.3329 37.8768 64.3329 37.3307C64.3329 36.8075 64.1321 36.2785 63.6663 36.2785H62.2456C61.0107 36.2785 60.323 34.7883 60.323 32.5509C60.323 30.5553 60.9528 28.6309 62.7878 28.6309H65.8469L65.1855 31.4312H62.5398C62.034 31.4312 61.8784 31.9568 61.8784 32.4588C61.8784 32.9748 62.0707 33.5437 62.4571 33.5437H63.9453C65.3219 33.5437 65.9193 35.0904 65.9193 37.1158C65.9193 39.2933 65.2536 41.0767 63.8704 41.0767H60.5224ZM66.0561 41.0767V38.3747H69.1999C69.6651 38.3747 69.8665 37.8768 69.8665 37.3307C69.8665 36.8075 69.6658 36.2785 69.1999 36.2785H67.7793C66.5444 36.2785 65.8566 34.7883 65.8566 32.5509C65.8566 30.5553 66.4865 28.6309 68.3215 28.6309H71.3806L70.7192 31.4312H68.0735C67.5677 31.4312 67.412 31.9568 67.412 32.4588C67.412 32.9748 67.6044 33.5437 67.9908 33.5437H69.479C70.8556 33.5437 71.4529 35.0904 71.4529 37.1158C71.4529 39.2933 70.7873 41.0767 69.404 41.0767H66.0561Z" fill="#006FCF"/>
</svg>
