<svg width="20" height="20" viewBox="0 0 20 20" fill="none" xmlns="http://www.w3.org/2000/svg">
<g filter="url(#filter0_b_3151_53228)">
<rect x="0.5" y="0.5" width="19" height="19" rx="3.5" stroke="#07689F"/>
<path d="M4.79 11.86C4.89 12.3867 5.19667 12.65 5.71 12.65C6.06333 12.65 6.31333 12.4933 6.46 12.18C6.60667 11.8667 6.68 11.3567 6.68 10.65C6.53333 10.8567 6.33333 11.0167 6.08 11.13C5.82667 11.2433 5.54333 11.3 5.23 11.3C4.80333 11.3 4.42333 11.2133 4.09 11.04C3.75667 10.86 3.49333 10.5967 3.3 10.25C3.11333 9.89667 3.02 9.47 3.02 8.97C3.02 8.47667 3.12 8.04667 3.32 7.68C3.52667 7.31333 3.81667 7.03 4.19 6.83C4.57 6.63 5.01667 6.53 5.53 6.53C6.51667 6.53 7.20667 6.83667 7.6 7.45C7.99333 8.06333 8.19 8.96667 8.19 10.16C8.19 11.0267 8.11 11.7433 7.95 12.31C7.79667 12.87 7.53333 13.2967 7.16 13.59C6.79333 13.8833 6.29 14.03 5.65 14.03C5.14333 14.03 4.71 13.93 4.35 13.73C3.99667 13.53 3.72333 13.2667 3.53 12.94C3.34333 12.6133 3.23667 12.2533 3.21 11.86H4.79ZM5.62 9.95C5.9 9.95 6.12333 9.86667 6.29 9.7C6.45667 9.52667 6.54 9.29333 6.54 9C6.54 8.68 6.45333 8.43333 6.28 8.26C6.10667 8.08667 5.87333 8 5.58 8C5.28667 8 5.05333 8.09 4.88 8.27C4.71333 8.44333 4.63 8.68333 4.63 8.99C4.63 9.27667 4.71333 9.51 4.88 9.69C5.05333 9.86333 5.3 9.95 5.62 9.95ZM11.1123 12.42L10.0023 15.29H8.91234L9.49234 12.42H11.1123ZM11.9134 12.63C12.1401 12.45 12.2434 12.3667 12.2234 12.38C12.8768 11.84 13.3901 11.3967 13.7634 11.05C14.1434 10.7033 14.4634 10.34 14.7234 9.96C14.9834 9.58 15.1134 9.21 15.1134 8.85C15.1134 8.57667 15.0501 8.36333 14.9234 8.21C14.7968 8.05667 14.6068 7.98 14.3534 7.98C14.1001 7.98 13.9001 8.07667 13.7534 8.27C13.6134 8.45667 13.5434 8.72333 13.5434 9.07H11.8934C11.9068 8.50333 12.0268 8.03 12.2534 7.65C12.4868 7.27 12.7901 6.99 13.1634 6.81C13.5434 6.63 13.9634 6.54 14.4234 6.54C15.2168 6.54 15.8134 6.74333 16.2134 7.15C16.6201 7.55667 16.8234 8.08667 16.8234 8.74C16.8234 9.45333 16.5801 10.1167 16.0934 10.73C15.6068 11.3367 14.9868 11.93 14.2334 12.51H16.9334V13.9H11.9134V12.63Z" fill="#07689F"/>
</g>
<defs>
<filter id="filter0_b_3151_53228" x="-4" y="-4" width="28" height="28" filterUnits="userSpaceOnUse" color-interpolation-filters="sRGB">
<feFlood flood-opacity="0" result="BackgroundImageFix"/>
<feGaussianBlur in="BackgroundImageFix" stdDeviation="2"/>
<feComposite in2="SourceAlpha" operator="in" result="effect1_backgroundBlur_3151_53228"/>
<feBlend mode="normal" in="SourceGraphic" in2="effect1_backgroundBlur_3151_53228" result="shape"/>
</filter>
</defs>
</svg>
